<?xml version="1.0" encoding="utf-8"?>
<!-- Generator: Adobe Illustrator 26.0.2, SVG Export Plug-In . SVG Version: 6.00 Build 0)  -->
<svg version="1.1" id="Vrstva_1" xmlns="http://www.w3.org/2000/svg" xmlns:xlink="http://www.w3.org/1999/xlink" x="0px" y="0px"
	 viewBox="0 0 512 512" style="enable-background:new 0 0 512 512;" xml:space="preserve">
<style type="text/css">
	.st0{fill:#2EB6D0;}
	.st1{fill:#5AFDC7;}
</style>
<g>
	<path class="st0" d="M89.7,733.3c-2.6,0-4.9-0.5-7-1.6c-2-1.1-3.6-2.5-4.8-4.4c-1.2-1.9-1.7-4-1.7-6.4v-19.4H84v19
		c0,1.1,0.3,2.2,0.8,3.1c0.5,0.9,1.2,1.6,2.1,2.2c0.9,0.5,1.8,0.8,2.9,0.8c1.1,0,2.1-0.3,3-0.8s1.6-1.2,2.1-2.2
		c0.5-0.9,0.8-1.9,0.8-3.1v-19h7.5v19.4c0,2.4-0.6,4.5-1.7,6.4c-1.2,1.9-2.8,3.3-4.8,4.4C94.6,732.8,92.3,733.3,89.7,733.3z"/>
	<path class="st0" d="M110.1,742.9v-33.8h6.8l0.3,5.3l-1.3-0.4c0.2-1,0.7-1.9,1.5-2.7c0.8-0.8,1.8-1.5,3.1-2
		c1.2-0.5,2.6-0.7,3.9-0.7c2,0,3.8,0.5,5.4,1.6c1.6,1.1,2.8,2.5,3.8,4.4s1.4,4,1.4,6.4c0,2.4-0.5,4.5-1.4,6.4
		c-0.9,1.9-2.2,3.3-3.8,4.4c-1.6,1.1-3.4,1.6-5.5,1.6c-1.3,0-2.6-0.3-3.9-0.8c-1.2-0.5-2.3-1.2-3.1-2.1s-1.4-1.8-1.7-2.8l1.7-0.6
		v15.8H110.1z M122.5,727.4c1.1,0,2-0.3,2.8-0.8s1.4-1.3,1.9-2.2s0.7-2,0.7-3.3c0-1.3-0.2-2.4-0.7-3.3c-0.4-0.9-1.1-1.7-1.9-2.2
		s-1.7-0.8-2.9-0.8c-1.1,0-2.1,0.3-2.9,0.8c-0.8,0.5-1.4,1.2-1.9,2.2c-0.4,1-0.7,2.1-0.7,3.3c0,1.3,0.2,2.4,0.7,3.3
		c0.5,0.9,1.1,1.7,1.9,2.2C120.5,727.1,121.4,727.4,122.5,727.4z"/>
	<path class="st0" d="M139.7,733v-33.3h7.2V733H139.7z"/>
	<path class="st0" d="M164.1,733.5c-2.5,0-4.7-0.5-6.6-1.6c-1.9-1.1-3.5-2.5-4.6-4.4c-1.1-1.9-1.7-4-1.7-6.4c0-2.4,0.6-4.5,1.7-6.4
		c1.1-1.9,2.7-3.3,4.6-4.4c1.9-1.1,4.1-1.6,6.6-1.6c2.5,0,4.7,0.5,6.6,1.6c1.9,1.1,3.5,2.5,4.6,4.4c1.1,1.9,1.7,4,1.7,6.4
		c0,2.4-0.6,4.5-1.7,6.4c-1.1,1.9-2.6,3.3-4.6,4.4C168.8,732.9,166.6,733.5,164.1,733.5z M164.1,727.3c1.1,0,2-0.3,2.9-0.8
		s1.5-1.3,2-2.2c0.5-0.9,0.7-2,0.7-3.2c0-1.2-0.2-2.3-0.7-3.2c-0.5-0.9-1.1-1.7-2-2.2c-0.8-0.5-1.8-0.8-2.9-0.8
		c-1.1,0-2,0.3-2.9,0.8c-0.9,0.5-1.5,1.3-2,2.2c-0.5,0.9-0.7,2-0.7,3.2c0,1.2,0.2,2.3,0.7,3.2s1.1,1.7,2,2.2
		C162.1,727,163.1,727.3,164.1,727.3z"/>
	<path class="st0" d="M190.5,733.4c-2,0-3.8-0.5-5.4-1.6c-1.6-1.1-2.8-2.5-3.8-4.4c-0.9-1.9-1.4-4-1.4-6.4c0-2.4,0.5-4.6,1.4-6.4
		c0.9-1.9,2.2-3.3,3.8-4.4c1.6-1.1,3.5-1.6,5.5-1.6c1.1,0,2.2,0.2,3.1,0.5c0.9,0.3,1.8,0.8,2.5,1.4c0.7,0.6,1.3,1.3,1.8,2
		c0.5,0.8,0.9,1.6,1.1,2.4l-1.5-0.2v-5.7h7.1V733h-7.3v-5.8l1.6,0c-0.2,0.8-0.6,1.6-1.2,2.4c-0.5,0.8-1.2,1.4-2,2
		c-0.8,0.6-1.6,1-2.6,1.3S191.6,733.4,190.5,733.4z M192.5,727.4c1.1,0,2.1-0.3,2.9-0.8c0.8-0.5,1.4-1.2,1.9-2.2
		c0.4-0.9,0.7-2.1,0.7-3.3c0-1.3-0.2-2.4-0.7-3.3c-0.4-0.9-1.1-1.7-1.9-2.2c-0.8-0.5-1.8-0.8-2.9-0.8c-1.1,0-2,0.3-2.8,0.8
		c-0.8,0.5-1.4,1.3-1.9,2.2c-0.5,0.9-0.7,2.1-0.7,3.3c0,1.3,0.2,2.4,0.7,3.3c0.4,0.9,1.1,1.7,1.9,2.2
		C190.5,727.1,191.4,727.4,192.5,727.4z"/>
	<path class="st0" d="M220.4,733.5c-2.1,0-3.9-0.5-5.5-1.6c-1.6-1.1-2.9-2.5-3.8-4.4c-0.9-1.9-1.4-4-1.4-6.4c0-2.4,0.5-4.5,1.4-6.4
		c0.9-1.9,2.2-3.3,3.8-4.4c1.6-1.1,3.5-1.6,5.6-1.6c1.1,0,2.1,0.2,3.1,0.5c1,0.3,1.9,0.8,2.7,1.3c0.8,0.6,1.5,1.2,2,2
		c0.5,0.7,0.8,1.5,0.9,2.3l-1.7,0.4v-15.4h7.2V733H228l-0.4-5.4l1.4,0.2c-0.1,0.7-0.4,1.5-0.9,2.2s-1.1,1.3-1.9,1.8
		c-0.8,0.5-1.7,0.9-2.7,1.3C222.5,733.4,221.5,733.5,220.4,733.5z M222.2,727.5c1.1,0,2.1-0.3,2.9-0.8c0.8-0.5,1.4-1.3,1.9-2.2
		s0.7-2.1,0.7-3.4c0-1.3-0.2-2.5-0.7-3.4s-1.1-1.7-1.9-2.2c-0.8-0.5-1.8-0.8-2.9-0.8s-2.1,0.3-2.9,0.8c-0.8,0.5-1.4,1.3-1.9,2.2
		c-0.5,1-0.7,2.1-0.7,3.4c0,1.3,0.2,2.4,0.7,3.4c0.4,1,1.1,1.7,1.9,2.2C220.1,727.3,221.1,727.5,222.2,727.5z"/>
	<path class="st0" d="M263.9,733.4c-2,0-3.8-0.5-5.4-1.6c-1.6-1.1-2.8-2.5-3.8-4.4c-0.9-1.9-1.4-4-1.4-6.4c0-2.4,0.5-4.6,1.4-6.4
		c0.9-1.9,2.2-3.3,3.8-4.4c1.6-1.1,3.5-1.6,5.5-1.6c1.1,0,2.2,0.2,3.1,0.5c0.9,0.3,1.8,0.8,2.5,1.4c0.7,0.6,1.3,1.3,1.8,2
		c0.5,0.8,0.9,1.6,1.1,2.4l-1.5-0.2v-5.7h7.1V733h-7.3v-5.8l1.6,0c-0.2,0.8-0.6,1.6-1.2,2.4c-0.5,0.8-1.2,1.4-2,2
		c-0.8,0.6-1.6,1-2.6,1.3S265,733.4,263.9,733.4z M265.9,727.4c1.1,0,2.1-0.3,2.9-0.8c0.8-0.5,1.4-1.2,1.9-2.2
		c0.4-0.9,0.7-2.1,0.7-3.3c0-1.3-0.2-2.4-0.7-3.3c-0.4-0.9-1.1-1.7-1.9-2.2c-0.8-0.5-1.8-0.8-2.9-0.8c-1.1,0-2,0.3-2.8,0.8
		c-0.8,0.5-1.4,1.3-1.9,2.2c-0.5,0.9-0.7,2.1-0.7,3.3c0,1.3,0.2,2.4,0.7,3.3c0.4,0.9,1.1,1.7,1.9,2.2
		C263.9,727.1,264.8,727.4,265.9,727.4z"/>
	<path class="st0" d="M303.1,704.4c-1.3,0-2.4-0.3-3.2-1c-0.8-0.6-1.1-1.6-1.1-2.8c0-1.1,0.4-2,1.2-2.7c0.8-0.7,1.8-1,3.1-1
		c1.3,0,2.4,0.3,3.1,1c0.7,0.6,1.1,1.6,1.1,2.7c0,1.1-0.4,2-1.1,2.7C305.5,704.1,304.4,704.4,303.1,704.4z M299.5,733v-23.9h7.2V733
		H299.5z"/>
	<path class="st0" d="M313.4,733v-23.9h6.8l0.2,4.3l-0.9,0c0.4-0.8,0.8-1.5,1.4-2.1s1.2-1.1,1.9-1.5c0.7-0.4,1.4-0.7,2.2-0.9
		s1.5-0.3,2.3-0.3c1.2,0,2.2,0.2,3.2,0.5c1,0.4,1.8,0.9,2.5,1.7c0.7,0.8,1.3,1.9,1.7,3.2l-1.1-0.1l0.4-0.7c0.4-0.7,0.9-1.4,1.5-2
		c0.6-0.6,1.3-1.1,2-1.5c0.7-0.4,1.5-0.7,2.3-0.9s1.6-0.3,2.3-0.3c1.9,0,3.5,0.4,4.7,1.1s2.2,1.8,2.9,3.3s1,3.3,1,5.3V733h-7.2v-14
		c0-1-0.1-1.8-0.4-2.4s-0.7-1.1-1.2-1.4c-0.5-0.3-1.2-0.5-2-0.5c-0.6,0-1.2,0.1-1.7,0.3c-0.5,0.2-1,0.5-1.3,0.9s-0.7,0.8-0.9,1.3
		c-0.2,0.5-0.3,1-0.3,1.6V733h-7.2v-14c0-0.9-0.1-1.7-0.4-2.3c-0.3-0.6-0.7-1.1-1.2-1.4s-1.2-0.5-1.9-0.5c-0.6,0-1.2,0.1-1.7,0.3
		c-0.5,0.2-1,0.5-1.3,0.9c-0.4,0.4-0.7,0.8-0.9,1.3c-0.2,0.5-0.3,1-0.3,1.6V733H313.4z"/>
	<path class="st0" d="M365.5,733.4c-2,0-3.8-0.5-5.4-1.6c-1.6-1.1-2.8-2.5-3.8-4.4c-0.9-1.9-1.4-4-1.4-6.4c0-2.4,0.5-4.6,1.4-6.4
		c0.9-1.9,2.2-3.3,3.8-4.4c1.6-1.1,3.5-1.6,5.5-1.6c1.1,0,2.2,0.2,3.1,0.5c0.9,0.3,1.8,0.8,2.5,1.4c0.7,0.6,1.3,1.3,1.8,2
		c0.5,0.8,0.9,1.6,1.1,2.4l-1.5-0.2v-5.7h7.1V733h-7.3v-5.8l1.6,0c-0.2,0.8-0.6,1.6-1.2,2.4c-0.5,0.8-1.2,1.4-2,2
		c-0.8,0.6-1.6,1-2.6,1.3S366.6,733.4,365.5,733.4z M367.5,727.4c1.1,0,2.1-0.3,2.9-0.8c0.8-0.5,1.4-1.2,1.9-2.2
		c0.4-0.9,0.7-2.1,0.7-3.3c0-1.3-0.2-2.4-0.7-3.3c-0.4-0.9-1.1-1.7-1.9-2.2s-1.8-0.8-2.9-0.8c-1.1,0-2,0.3-2.8,0.8s-1.4,1.3-1.9,2.2
		c-0.4,0.9-0.7,2.1-0.7,3.3c0,1.3,0.2,2.4,0.7,3.3c0.5,0.9,1.1,1.7,1.9,2.2C365.4,727.1,366.4,727.4,367.5,727.4z"/>
	<path class="st0" d="M397.2,743.4c-1.9,0-3.9-0.3-5.8-0.9c-1.9-0.6-3.5-1.3-4.7-2.2l2.5-5c0.6,0.4,1.3,0.8,2.1,1.1
		c0.8,0.3,1.6,0.6,2.4,0.7s1.7,0.3,2.6,0.3c1.5,0,2.8-0.2,3.7-0.7s1.7-1.1,2.2-2c0.5-0.9,0.7-2.1,0.7-3.4v-4l1.4,0.2
		c-0.2,1-0.7,1.9-1.6,2.7c-0.8,0.8-1.8,1.5-3,2c-1.2,0.5-2.5,0.7-3.8,0.7c-2.2,0-4.1-0.5-5.8-1.5c-1.7-1-3-2.4-4-4.2
		c-1-1.8-1.5-3.8-1.5-6.2c0-2.4,0.5-4.5,1.4-6.4s2.3-3.3,4-4.4c1.7-1.1,3.6-1.6,5.7-1.6c0.9,0,1.8,0.1,2.6,0.3s1.6,0.5,2.3,0.8
		c0.7,0.3,1.3,0.7,1.9,1.2s1,1,1.3,1.5c0.3,0.5,0.6,1.1,0.7,1.7l-1.5,0.4l0.3-5.4h6.8v21.9c0,1.9-0.3,3.7-0.9,5.2
		c-0.6,1.5-1.4,2.8-2.6,3.9c-1.1,1.1-2.5,1.9-4.1,2.4C401,743.1,399.2,743.4,397.2,743.4z M397.4,727.3c1.2,0,2.2-0.3,3-0.8
		c0.9-0.5,1.5-1.3,2-2.2s0.7-2,0.7-3.3c0-1.3-0.2-2.4-0.7-3.3c-0.5-0.9-1.1-1.7-2-2.2c-0.9-0.5-1.9-0.8-3-0.8c-1.1,0-2.1,0.3-3,0.8
		s-1.5,1.3-2,2.2c-0.5,0.9-0.7,2-0.7,3.3c0,1.3,0.2,2.4,0.7,3.3s1.1,1.7,2,2.2S396.2,727.3,397.4,727.3z"/>
	<path class="st0" d="M427.7,733.5c-2.6,0-4.9-0.5-6.9-1.6c-1.9-1.1-3.5-2.5-4.5-4.4c-1.1-1.8-1.6-3.9-1.6-6.3c0-1.8,0.3-3.5,0.9-5
		s1.4-2.9,2.5-4c1.1-1.1,2.4-2,3.8-2.6s3.1-0.9,4.9-0.9c1.7,0,3.2,0.3,4.6,0.9c1.4,0.6,2.6,1.4,3.6,2.5s1.8,2.4,2.3,3.8
		c0.5,1.5,0.8,3.1,0.7,4.8l0,1.9h-19l-1-4h14.2l-0.8,0.9v-0.9c-0.1-0.7-0.3-1.4-0.7-2c-0.4-0.6-0.9-1-1.6-1.4
		c-0.7-0.3-1.4-0.5-2.2-0.5c-1.2,0-2.2,0.2-3,0.7s-1.4,1.1-1.9,2s-0.6,2-0.6,3.3c0,1.3,0.3,2.5,0.8,3.4s1.4,1.7,2.4,2.3
		s2.3,0.8,3.8,0.8c1,0,1.9-0.1,2.7-0.4c0.8-0.3,1.7-0.8,2.6-1.5l3.4,4.8c-0.9,0.8-1.9,1.5-3,2c-1,0.5-2.1,0.9-3.2,1.1
		S428.8,733.5,427.7,733.5z"/>
</g>
<g>
	<g>
		<path class="st0" d="M365.3,233.2c-23.4,0-42.4-19-42.4-42.4c0-23.4,19-42.4,42.4-42.4s42.4,19,42.4,42.4
			C407.7,214.2,388.7,233.2,365.3,233.2z M365.3,169c-12,0-21.8,9.8-21.8,21.8s9.8,21.8,21.8,21.8c12,0,21.8-9.8,21.8-21.8
			S377.3,169,365.3,169z"/>
	</g>
	<g>
		<polygon class="st1" points="298.6,296.6 250.5,354.7 179,268.4 59.5,412.8 202.3,412.8 298.6,412.8 394.8,412.8 		"/>
		<path class="st0" d="M429.4,84.4H82.6c-21.4,0-38.9,17.4-38.9,38.9v265.5c0,21.4,17.4,38.9,38.9,38.9h346.8
			c21.4,0,38.9-17.4,38.9-38.9V123.2C468.3,101.8,450.8,84.4,429.4,84.4z M82.6,407c-1.5,0-3-0.2-4.4-0.6L179,284.6L280.4,407H82.6z
			 M305.6,407l0.9-0.7l-42.7-51.6l34.7-42l78,94.3H305.6z M447.7,388.8c0,10.1-8.2,18.3-18.3,18.3h-27.6l0.9-0.7L298.6,280.4
			l-48.1,58.1L179,252.2L64.4,390.7c-0.1-0.6-0.1-1.3-0.1-2V123.2c0-10.1,8.2-18.3,18.3-18.3h346.8c10.1,0,18.3,8.2,18.3,18.3V388.8
			z"/>
	</g>
</g>
</svg>
