<?xml version="1.0" encoding="utf-8"?>
<!-- Generator: Adobe Illustrator 26.0.2, SVG Export Plug-In . SVG Version: 6.00 Build 0)  -->
<svg version="1.1" id="Vrstva_1" xmlns="http://www.w3.org/2000/svg" xmlns:xlink="http://www.w3.org/1999/xlink" x="0px" y="0px"
	 viewBox="0 0 1518 284" style="enable-background:new 0 0 1518 284;" xml:space="preserve">
<style type="text/css">
	.st0{fill:#59F8C4;}
	.st1{fill:#9919E1;}
</style>
<g>
	<path class="st0" d="M25,156.7l127.8-77.2v43l-68.8,43l68.8,41.2v45.4L25,176.4V156.7z"/>
	<path class="st1" d="M304,58.2v73.9h106.3v26.1H304v85.7h-30.3V31.9h149.6v26.4H304z"/>
	<path class="st1" d="M441.8,163.7c0-47.9,35.4-81.8,83.6-81.8c48.2,0,83.3,33.9,83.3,81.8c0,47.9-35.1,82.1-83.3,82.1
		C477.3,245.8,441.8,211.5,441.8,163.7z M579.4,163.7c0-34.2-23-56.3-53.9-56.3s-54.2,22.1-54.2,56.3s23.3,56.6,54.2,56.6
		S579.4,197.9,579.4,163.7z"/>
	<path class="st1" d="M735.4,81.9V110c-2.4-0.3-4.5-0.3-6.7-0.3c-31.2,0-50.6,19.1-50.6,54.2v80H649V83.4h27.9v27
		C687.2,91.6,707.2,81.9,735.4,81.9z"/>
	<path class="st1" d="M922.9,83.4v160.6h-27.6v-24.2c-11.8,16.7-31.8,26.1-54.5,26.1c-41.5,0-69.1-22.7-69.1-70V83.4h29.1v89.1
		c0,31.5,15.8,47.3,43.3,47.3c30.3,0,49.7-18.8,49.7-53.3v-83H922.9z"/>
	<path class="st1" d="M1244.9,151.5v92.4h-29.1v-89.1c0-31.5-15.1-47-41.5-47c-29.1,0-48.2,18.5-48.2,53.3v82.7h-29.1v-89.1
		c0-31.5-15.1-47-41.5-47c-29.1,0-48.2,18.5-48.2,53.3v82.7h-29.1V83.4h27.9v23.9c11.5-16.4,31.2-25.4,55.4-25.4
		c24.5,0,45.1,9.7,55.7,29.7c12.1-18.2,34.5-29.7,61.8-29.7C1218.2,81.9,1244.9,104.3,1244.9,151.5z"/>
	<path class="st0" d="M1493,176.4l-127.8,75.7v-45.4l68.8-41.2l-68.8-43v-43l127.8,77.2V176.4z"/>
</g>
</svg>
