<?xml version="1.0" encoding="utf-8"?>
<!-- Generator: Adobe Illustrator 26.2.1, SVG Export Plug-In . SVG Version: 6.00 Build 0)  -->
<svg version="1.1" id="Vrstva_1" xmlns="http://www.w3.org/2000/svg" xmlns:xlink="http://www.w3.org/1999/xlink" x="0px" y="0px"
	 viewBox="0 0 512 512" style="enable-background:new 0 0 512 512;" xml:space="preserve">
<style type="text/css">
	.st0{fill:#FFFFFF;}
	.st1{fill:#9919E1;}
	.st2{fill:#59F8C4;}
</style>
<path id="bg" class="st0" d="M393.4,512H118.6C53.1,512,0,458.9,0,393.4V118.6C0,53.1,53.1,0,118.6,0h274.8
	C458.9,0,512,53.1,512,118.6v274.8C512,458.9,458.9,512,393.4,512z"/>
<g>
	<path class="st2" d="M28,272.6L132,210v34.9l-56,34.9l56,33.4V350L28,288.6V272.6z"/>
	<path class="st2" d="M487.9,287l-104,62.6v-34.9l56-34.9l-56-33.4v-36.8l104,61.4V287z"/>
	<path class="st1" d="M212.3,170.9v82.6H331v29.2H212.3v95.8h-33.8v-237h167V171H212.3V170.9z"/>
</g>
</svg>
