<?xml version="1.0" encoding="utf-8"?>
<!-- Generator: Adobe Illustrator 26.0.2, SVG Export Plug-In . SVG Version: 6.00 Build 0)  -->
<svg version="1.1" id="Vrstva_1" xmlns="http://www.w3.org/2000/svg" xmlns:xlink="http://www.w3.org/1999/xlink" x="0px" y="0px"
	 viewBox="0 0 512 512" style="enable-background:new 0 0 512 512;" xml:space="preserve">
<style type="text/css">
	.st0{fill:#5AFDC7;stroke:#2EB6D0;stroke-width:19.8425;stroke-linecap:round;stroke-linejoin:round;stroke-miterlimit:10;}
</style>
<path class="st0" d="M370.2,229.6H246.2c-6.3,0-10.2-6.9-7-12.3l62.1-104.5c3.2-5.3,10.8-5.3,14,0l62.1,104.5
	C380.5,222.7,376.5,229.6,370.2,229.6z"/>
<path class="st0" d="M396,404H294c-7.3,0-13.2-5.9-13.2-13.2V288.9c0-7.3,5.9-13.2,13.2-13.2H396c7.3,0,13.2,5.9,13.2,13.2v101.9
	C409.2,398.1,403.3,404,396,404z"/>
<circle class="st0" cx="165.5" cy="339.8" r="70.1"/>
</svg>
